<svg width="15" height="16" xmlns="http://www.w3.org/2000/svg">

 <g>
  <title>background</title>
  <rect fill="none" id="canvas_background" height="402" width="582" y="-1" x="-1"/>
 </g>
 <g>
  <title>Layer 1</title>
  <path fill="#4f6e8d" id="svg_1" d="m14.412371,11.793815l0,1l-14,0l0,-1l0.73,-0.58c0.77,-0.77 0.81,-2.55 1.19,-4.42c0.77,-3.77 4.08,-5 4.08,-5c0,-0.55 0.45,-1 1,-1s1,0.45 1,1c0,0 3.39,1.23 4.16,5c0.38,1.88 0.42,3.66 1.19,4.42l0.66,0.58l-0.01,0zm-7,4c1.11,0 2,-0.89 2,-2l-4,0c0,1.11 0.89,2 2,2z" fill-rule="evenodd"/>
 </g>
</svg>