<svg width="84" height="74" xmlns="http://www.w3.org/2000/svg">

 <g>
  <title>background</title>
  <rect fill="none" id="canvas_background" height="76" width="86" y="-1" x="-1"/>
 </g>
 <g>
  <title>Layer 1</title>
  <g id="svg_1">
   <path id="svg_2" fill="#856404" d="m75,3.000007c-3.28998,0 -6,2.70995 -6,6c0,1.30447 0.43695,2.51066 1.15625,3.5l-13.625,18.71879c-0.49147,-0.1321 -1.00068,-0.2188 -1.53125,-0.2188c-2.58058,0 -4.78598,1.6933 -5.625,4.00002l-14.75,0c-0.83902,-2.30672 -3.04442,-4.00002 -5.625,-4.00002c-3.28998,0 -6,2.71 -6,6.00002c0,1.3045 0.43695,2.5107 1.15625,3.5l-13.625,18.7187c-0.49148,-0.132 -1.00067,-0.2187 -1.53125,-0.2187c-3.29004,0 -6,2.71 -6,6c0,3.29 2.70996,6 6,6c3.29004,0 6,-2.71 6,-6c0,-1.3077 -0.43372,-2.5093 -1.15625,-3.5l13.59375,-18.7187c0.50112,0.1376 1.02034,0.2187 1.5625,0.2187c2.59433,0 4.82761,-1.6742 5.65625,-4l14.6875,0c0.82864,2.3258 3.06192,4 5.65625,4c3.29004,0 6,-2.71 6,-6c0,-1.3077 -0.43371,-2.50932 -1.15625,-3.50002l13.59375,-18.71874c0.50112,0.13765 1.02034,0.21875 1.5625,0.21875c3.29004,0 6,-2.71 6,-6c0,-3.29005 -2.71002,-6 -6,-6z"/>
  </g>
 </g>
</svg>