<svg width="12" height="16" xmlns="http://www.w3.org/2000/svg">

 <g>
  <title>background</title>
  <rect fill="none" id="canvas_background" height="402" width="582" y="-1" x="-1"/>
 </g>
 <g>
  <title>Layer 1</title>
  <path fill="#55db74" id="svg_1" d="m10.24,7.4a4.15,4.15 0 0 1 -1.2,3.6a4.346,4.346 0 0 1 -5.41,0.54l1.17,-1.14l-4.3,-0.6l0.6,4.2l1.31,-1.26c2.36,1.74 5.7,1.57 7.84,-0.54a5.876,5.876 0 0 0 1.74,-4.46l-1.75,-0.34zm-7.28,-2.4a4.346,4.346 0 0 1 5.41,-0.54l-1.17,1.14l4.3,0.6l-0.6,-4.2l-1.31,1.26c-2.36,-1.74 -5.7,-1.57 -7.85,0.54c-1.24,1.23 -1.8,2.85 -1.73,4.46l1.75,0.35a4.17,4.17 0 0 1 1.2,-3.61z" fill-rule="evenodd"/>
 </g>
</svg>