<svg width="16" height="16" xmlns="http://www.w3.org/2000/svg">

 <g>
  <title>background</title>
  <rect fill="none" id="canvas_background" height="402" width="582" y="-1" x="-1"/>
 </g>
 <g>
  <title>Layer 1</title>
  <path fill="#ffffff" id="svg_1" d="m15.7,13.3l-3.81,-3.83a5.93,5.93 0 0 0 1.11,-3.47c0,-3.31 -2.69,-6 -6,-6s-6,2.69 -6,6s2.69,6 6,6c1.3,0 2.48,-0.41 3.47,-1.11l3.83,3.81c0.19,0.2 0.45,0.3 0.7,0.3c0.25,0 0.52,-0.09 0.7,-0.3a0.996,0.996 0 0 0 0,-1.41l0,0.01zm-8.7,-2.6c-2.59,0 -4.7,-2.11 -4.7,-4.7c0,-2.59 2.11,-4.7 4.7,-4.7c2.59,0 4.7,2.11 4.7,4.7c0,2.59 -2.11,4.7 -4.7,4.7z" fill-rule="evenodd"/>
 </g>
</svg>